<svg xmlns="http://www.w3.org/2000/svg" viewBox="0 0 240 260" font-family="-apple-system, 'SF Pro Text', 'Helvetica Neue', Arial, sans-serif">
  <defs>
    <linearGradient id="fade" x1="0" y1="0" x2="0" y2="1">
      <stop offset="0" stop-color="#fff" stop-opacity="0"/>
      <stop offset="1" stop-color="#fff"/>
    </linearGradient>
    <clipPath id="screen"><rect x="28" y="20" width="184" height="292" rx="23"/></clipPath>
  </defs>
  <rect x="20" y="12" width="200" height="308" rx="31" fill="#1c1c1e"/>
  <g clip-path="url(#screen)">
    <rect x="28" y="20" width="184" height="292" fill="#f2f2f7"/>
    <text x="44" y="40" font-size="9" font-weight="600" fill="#000">9:41</text>
    <rect x="28" y="48" width="184" height="28" fill="#f9f9f9"/>
    <path d="M28 76h184" stroke="#d1d1d6" stroke-width=".8"/>
    <text x="40" y="66" font-size="9" fill="#007aff">Anulați</text>
    <rect x="96" y="58" width="48" height="8" rx="4" fill="#d1d1d6"/>
    <text x="198" y="66" font-size="9" font-weight="600" fill="#007aff" text-anchor="end">Instalați</text>
    <rect x="158" y="53" width="46" height="19" rx="6" fill="none" stroke="#23908a" stroke-width="2.5"/>
    <rect x="36" y="88" width="168" height="54" rx="9" fill="#fff"/>
    <rect x="46" y="97" width="36" height="36" rx="8" fill="#8e8e93"/>
    <circle cx="64" cy="115" r="9" fill="none" stroke="#fff" stroke-width="3" stroke-dasharray="3.2 2.4"/>
    <circle cx="64" cy="115" r="4.5" fill="none" stroke="#fff" stroke-width="2"/>
    <text x="90" y="112" font-size="9" font-weight="600" fill="#000">Register for Development</text>
    <text x="90" y="124" font-size="7.5" fill="#8e8e93">expo.dev</text>
    <rect x="36" y="152" width="168" height="84" rx="9" fill="#fff"/>
    <rect x="46" y="162" width="46" height="7" rx="3" fill="#e5e5ea"/>
    <rect x="104" y="162" width="88" height="7" rx="3" fill="#ececf0"/>
    <path d="M46 180h158" stroke="#e5e5ea" stroke-width=".8"/>
    <rect x="46" y="190" width="40" height="7" rx="3" fill="#e5e5ea"/>
    <rect x="104" y="190" width="72" height="7" rx="3" fill="#ececf0"/>
    <path d="M46 208h158" stroke="#e5e5ea" stroke-width=".8"/>
    <rect x="46" y="218" width="52" height="7" rx="3" fill="#e5e5ea"/>
    <rect x="104" y="218" width="80" height="7" rx="3" fill="#ececf0"/>
    <rect x="28" y="212" width="184" height="48" fill="url(#fade)"/>
  </g>
</svg>
